<svg xmlns="http://www.w3.org/2000/svg" viewBox="0 0 256 256"><path d="M128,23.06c34.18,0,38.23.13,51.72.75,12.48.57,19.26,2.65,23.77,4.41a39.66,39.66,0,0,1,14.72,9.57,39.66,39.66,0,0,1,9.57,14.72c1.76,4.51,3.84,11.29,4.41,23.77.62,13.49.75,17.54.75,51.72s-.13,38.23-.75,51.72c-.57,12.48-2.65,19.26-4.41,23.77a42.33,42.33,0,0,1-24.29,24.29c-4.51,1.76-11.29,3.84-23.77,4.41-13.49.62-17.54.75-51.72.75s-38.23-.13-51.72-.75c-12.48-.57-19.26-2.65-23.77-4.41a39.58,39.58,0,0,1-14.72-9.57,39.58,39.58,0,0,1-9.57-14.72c-1.76-4.51-3.84-11.29-4.41-23.77-.62-13.49-.75-17.54-.75-51.72s.13-38.23.75-51.72C24.38,63.8,26.46,57,28.22,52.51a39.66,39.66,0,0,1,9.57-14.72,39.58,39.58,0,0,1,14.72-9.57C57,26.46,63.8,24.38,76.28,23.81c13.49-.62,17.54-.75,51.72-.75M128,0C93.24,0,88.88.15,75.23.77S52.3,3.56,44.15,6.72A62.88,62.88,0,0,0,21.48,21.48,62.83,62.83,0,0,0,6.72,44.16C3.56,52.3,1.39,61.6.77,75.23S0,93.24,0,128s.15,39.12.77,52.77,2.79,22.93,5.95,31.08a62.88,62.88,0,0,0,14.76,22.67,62.88,62.88,0,0,0,22.67,14.76c8.15,3.16,17.45,5.33,31.08,5.95s18,.77,52.77.77,39.12-.15,52.77-.77,22.93-2.79,31.07-5.95a65.4,65.4,0,0,0,37.44-37.43c3.16-8.15,5.33-17.45,5.95-31.08s.77-18,.77-52.77-.15-39.12-.77-52.77-2.79-22.93-5.95-31.07a62.83,62.83,0,0,0-14.76-22.68A62.83,62.83,0,0,0,211.84,6.72C203.7,3.56,194.4,1.39,180.77.77S162.76,0,128,0Zm0,62.27A65.73,65.73,0,1,0,193.73,128,65.73,65.73,0,0,0,128,62.27Zm0,108.4A42.67,42.67,0,1,1,170.67,128,42.68,42.68,0,0,1,128,170.67Zm83.69-111a15.36,15.36,0,1,1-15.36-15.36A15.36,15.36,0,0,1,211.69,59.67Z" transform="translate(0 0)" style="fill:#0a0a08"/></svg>